<svg xmlns="http://www.w3.org/2000/svg" xmlns:xlink="http://www.w3.org/1999/xlink" xmlns:svgjs="http://svgjs.com/svgjs" version="1.1" width="512" height="512" x="0" y="0" viewBox="0 0 64 64" style="enable-background:new 0 0 512 512" xml:space="preserve" class="">
    <g>
        <g xmlns="http://www.w3.org/2000/svg" id="Flat">
        <path d="m15 3h34v42h-34z" fill="#8aced8" data-original="#8aced8" class=""></path>
        <path d="m37 35-5.578 2.789a2 2 0 0 1 -.894.211h-.528a2 2 0 0 1 -2-2 2 2 0 0 1 .8-1.6l5.4-4.053a6.744 6.744 0 0 1 4.046-1.347h4.148a6.737 6.737 0 0 1 5.606 3h5v13h-5l-2 2-12-11z" fill="#7e5c3f" data-original="#fbca7b" class=""></path>
        <path d="m3 29h8v18h-8z" fill="#428dc5" data-original="#428dc5" class=""></path>
        <path d="m53 30h8v18h-8z" fill="#428dc5" data-original="#428dc5" class=""></path>
        <path d="m11 45v-14h6.882a4.735 4.735 0 0 0 2.118-.5 4.735 4.735 0 0 1 2.118-.5h2.836a7.982 7.982 0 0 1 5.318 2.029l16.1 14.379a2 2 0 0 1 .628 1.454v.138a2 2 0 0 1 -2 2h-.233a2 2 0 0 1 -1.337-.513l-9.43-8.487 9 8a2 2 0 0 1 -2 2h-.249a2 2 0 0 1 -1.317-.495l-7.434-6.505 6.3 5.4a2 2 0 0 1 .7 1.52v.08a2 2 0 0 1 -2 2h-.26a2 2 0 0 1 -1.3-.481l-6.44-5.519 5.28 4.4a2 2 0 0 1 .72 1.537v.063a2 2 0 0 1 -2 2h-.249a2 2 0 0 1 -1.317-.495l-7.434-6.505-1.951-.65a8.268 8.268 0 0 1 -1.969-.963 8.25 8.25 0 0 0 -4.58-1.387z" fill="#ae8766" data-original="#fda749" class=""></path>
        <g fill="#fbca7b">
            <path d="m22.8 50.4 2.667-2a2 2 0 0 1 1.2-.4h.333a2 2 0 0 1 2 2 2 2 0 0 1 -.8 1.6l-2.667 2a2 2 0 0 1 -1.2.4h-.333a2 2 0 0 1 -2-2 2 2 0 0 1 .8-1.6z" fill="#7e5c3f" data-original="#fbca7b" class=""></path>
            <path d="m25.8 53.4 2.667-2a2 2 0 0 1 1.2-.4h.333a2 2 0 0 1 2 2 2 2 0 0 1 -.8 1.6l-2.667 2a2 2 0 0 1 -1.2.4h-.333a2 2 0 0 1 -2-2 2 2 0 0 1 .8-1.6z" fill="#7e5c3f" data-original="#fbca7b" class=""></path>
            <path d="m14.8 46.4 2.667-2a2 2 0 0 1 1.2-.4h.333a2 2 0 0 1 2 2 2 2 0 0 1 -.8 1.6l-2.667 2a2 2 0 0 1 -1.2.4h-.333a2 2 0 0 1 -2-2 2 2 0 0 1 .8-1.6z" fill="#7e5c3f" data-original="#fbca7b" class=""></path>
            <path d="m18.8 48.4 2.667-2a2 2 0 0 1 1.2-.4h.333a2 2 0 0 1 2 2 2 2 0 0 1 -.8 1.6l-2.667 2a2 2 0 0 1 -1.2.4h-.333a2 2 0 0 1 -2-2 2 2 0 0 1 .8-1.6z" fill="#7e5c3f" data-original="#fbca7b" class=""></path>
        </g>
        <circle cx="32" cy="16" fill="#428dc5" r="9" data-original="#428dc5" class=""></circle>
        <path d="m31 20a.993.993 0 0 1 -.6-.2l-4-3 1.2-1.6 3.306 2.48 5.387-5.387 1.414 1.414-6 6a1 1 0 0 1 -.707.293z" fill="#c5453b" data-original="#c5453b"></path>
        </g>
    </g>
</svg>